<?xml version="1.0" encoding="UTF-8" standalone="no" ?>
<!DOCTYPE svg PUBLIC "-//W3C//DTD SVG 1.1//EN" "http://www.w3.org/Graphics/SVG/1.1/DTD/svg11.dtd">
<svg xmlns="http://www.w3.org/2000/svg" xmlns:xlink="http://www.w3.org/1999/xlink" version="1.1" width="640" height="640" viewBox="0 0 640 640" xml:space="preserve">
<desc>Created with Fabric.js 5.3.0</desc>
<defs>
</defs>
<g transform="matrix(1 0 0 1 211.7560073937 114.0793949694)" id="irH4cXTxPUQXp5uZiGhNg"  >
<path style="stroke: rgb(0,0,0); stroke-width: 1; stroke-dasharray: none; stroke-linecap: round; stroke-dashoffset: 0; stroke-linejoin: round; stroke-miterlimit: 10; fill: none; fill-rule: nonzero; opacity: 1;"  transform=" translate(-211.7560073937, -114.0793949694)" d="M 174.49168207024024 62.64816014732286 Q 174.49168207024024 62.64916014732286 174.49168207024024 63.240318018840625 Q 174.49168207024024 63.83147589035839 174.49168207024024 64.42263376187614 Q 174.49168207024024 65.0137916333939 174.49168207024024 65.60494950491164 Q 174.49168207024024 66.19610737642941 174.49168207024024 66.78726524794718 Q 174.49168207024024 67.37842311946494 174.49168207024024 68.56073886250044 Q 174.49168207024024 69.74305460553596 174.49168207024024 70.33421247705371 Q 174.49168207024024 70.92537034857148 174.49168207024024 72.69884396312474 Q 174.49168207024024 74.47231757767803 174.49168207024024 75.06347544919578 Q 174.49168207024024 75.65463332071353 174.49168207024024 76.24579119223128 Q 174.49168207024024 76.83694906374905 174.49168207024024 77.42810693526681 Q 174.49168207024024 78.01926480678458 174.49168207024024 78.61042267830234 Q 174.49168207024024 79.2015805498201 174.49168207024024 79.79273842133784 Q 174.49168207024024 80.3838962928556 174.49168207024024 80.97505416437336 Q 174.49168207024024 81.56621203589113 174.49168207024024 82.15736990740888 Q 174.49168207024024 82.74852777892664 174.49168207024024 83.3396856504444 Q 174.49168207024024 83.93084352196215 174.49168207024024 85.11315926499768 Q 174.49168207024024 86.2954750080332 174.49168207024024 86.88663287955094 Q 174.49168207024024 87.47779075106871 174.49168207024024 88.06894862258648 Q 174.49168207024024 88.66010649410423 174.49168207024024 89.25126436562198 Q 174.49168207024024 89.84242223713974 174.49168207024024 90.43358010865751 Q 174.49168207024024 91.02473798017527 174.49168207024024 92.20705372321078 Q 174.49168207024024 93.3893694662463 174.49168207024024 94.57168520928181 Q 174.49168207024024 95.75400095231733 174.49168207024024 96.34515882383508 Q 174.49168207024024 96.93631669535284 174.49168207024024 98.70979030990611 Q 174.49168207024024 100.4832639244594 174.49168207024024 101.07442179597716 Q 174.49168207024024 101.66557966749492 174.49168207024024 102.25673753901268 Q 174.49168207024024 102.84789541053043 174.49168207024024 105.21252689660146 Q 174.49168207024024 107.5771583826725 174.49168207024024 108.16831625419026 Q 174.49168207024024 108.75947412570802 174.49168207024024 109.94178986874353 Q 174.49168207024024 111.12410561177903 174.49168207024024 111.7152634832968 Q 174.49168207024024 112.30642135481456 174.49168207024024 113.48873709785008 Q 174.49168207024024 114.6710528408856 173.9001848428835 115.85336858392111 Q 173.30868761552676 117.03568432695663 173.30868761552676 118.21800006999214 Q 173.30868761552676 119.40031581302766 173.30868761552676 120.58263155606318 Q 173.30868761552676 121.7649472990987 173.30868761552676 122.35610517061646 Q 173.30868761552676 122.94726304213422 173.30868761552676 123.53842091365198 Q 173.30868761552676 124.12957878516973 173.30868761552676 124.72073665668749 Q 173.30868761552676 125.31189452820526 173.9001848428835 125.90305239972302 Q 174.49168207024024 126.49421027124079 174.49168207024024 127.67652601427628 Q 174.49168207024024 128.85884175731178 175.08317929759698 130.0411575003473 Q 175.67467652495372 131.22347324338284 175.67467652495372 131.8146311149006 Q 175.67467652495372 132.40578898641837 176.2661737523105 133.58810472945387 Q 176.85767097966726 134.77042047248938 176.85767097966726 135.36157834400714 Q 176.85767097966726 135.9527362155249 177.449168207024 137.1350519585604 Q 178.04066543438074 138.3173677015959 178.04066543438074 138.90852557311368 Q 178.04066543438074 139.49968344463144 178.04066543438074 140.0908413161492 Q 178.04066543438074 140.68199918766697 178.04066543438074 141.27315705918474 Q 178.04066543438074 141.8643149307025 178.63216266173748 141.8643149307025 Q 179.22365988909422 141.8643149307025 179.22365988909422 142.45547280222024 Q 179.22365988909422 143.04663067373798 179.81515711645096 143.04663067373798 Q 180.4066543438077 143.04663067373798 180.4066543438077 143.63778854525575 Q 180.4066543438077 144.2289464167735 180.4066543438077 144.82010428829128 Q 180.4066543438077 145.41126215980904 180.99815157116447 146.0024200313268 Q 181.58964879852124 146.59357790284457 181.58964879852124 147.1847357743623 Q 181.58964879852124 147.77589364588005 182.18114602587798 148.3670515173978 Q 182.77264325323472 148.95820938891558 183.36414048059146 149.54936726043334 Q 183.9556377079482 150.1405251319511 184.54713493530494 150.73168300346887 Q 185.13863216266168 151.32284087498664 185.13863216266168 151.91399874650438 Q 185.13863216266168 152.5051566180221 186.3216266173752 153.68747236105764 Q 187.5046210720887 154.86978810409317 187.5046210720887 156.05210384712868 Q 187.5046210720887 157.23441959016418 188.68761552680218 158.4167353331997 Q 189.87060998151566 159.59905107623524 191.05360443622916 160.78136681927077 Q 192.23659889094267 161.9636825623063 192.23659889094267 162.55484043382404 Q 192.23659889094267 163.14599830534178 192.8280961182994 163.73715617685954 Q 193.41959334565615 164.3283140483773 194.0110905730129 164.3283140483773 Q 194.60258780036963 164.3283140483773 195.19408502772637 164.91947191989507 Q 195.7855822550831 165.51062979141284 196.96857670979662 166.10178766293058 Q 198.15157116451013 166.6929455344483 198.15157116451013 167.28410340596608 Q 198.15157116451013 167.87526127748384 198.74306839186687 168.4664191490016 Q 199.3345656192236 169.05757702051937 199.92606284658035 169.05757702051937 Q 200.5175600739371 169.05757702051937 201.10905730129386 169.64873489203714 Q 201.70055452865063 170.2398927635549 202.8835489833641 170.2398927635549 Q 204.0665434380776 170.2398927635549 204.0665434380776 170.83105063507267 Q 204.0665434380776 171.42220850659044 205.2495378927911 171.42220850659044 Q 206.4325323475046 171.42220850659044 207.02402957486134 171.42220850659044 Q 207.61552680221808 171.42220850659044 208.20702402957482 171.42220850659044 Q 208.79852125693156 171.42220850659044 209.98151571164505 172.01336637810817 Q 211.16451016635853 172.6045242496259 211.7560073937153 172.6045242496259 Q 212.34750462107206 172.6045242496259 212.9390018484288 173.19568212114368 Q 213.53049907578554 173.78683999266144 214.71349353049902 173.78683999266144 Q 215.8964879852125 173.78683999266144 216.48798521256927 173.78683999266144 Q 217.07948243992604 173.78683999266144 217.67097966728278 173.78683999266144 Q 218.26247689463952 173.78683999266144 219.445471349353 173.78683999266144 Q 220.62846580406648 173.78683999266144 221.81146025878 173.78683999266144 Q 222.9944547134935 173.78683999266144 224.17744916820698 173.78683999266144 Q 225.36044362292046 173.78683999266144 226.54343807763397 173.78683999266144 Q 227.72643253234747 173.78683999266144 228.3179297597042 173.78683999266144 Q 228.90942698706095 173.78683999266144 229.5009242144177 173.78683999266144 Q 230.09242144177443 173.78683999266144 231.27541589648794 173.78683999266144 Q 232.45841035120145 173.78683999266144 233.64140480591493 173.78683999266144 Q 234.8243992606284 173.78683999266144 234.8243992606284 173.19568212114368 Q 234.8243992606284 172.6045242496259 236.00739371534192 172.01336637810817 Q 237.19038817005543 171.42220850659044 237.78188539741217 171.42220850659044 Q 238.3733826247689 171.42220850659044 238.96487985212565 171.42220850659044 Q 239.5563770794824 171.42220850659044 240.14787430683913 170.83105063507267 Q 240.73937153419587 170.2398927635549 241.33086876155264 170.2398927635549 Q 241.9223659889094 170.2398927635549 242.51386321626615 169.64873489203714 Q 243.10536044362289 169.05757702051937 243.69685767097963 169.05757702051937 Q 244.28835489833637 169.05757702051937 244.8798521256931 168.4664191490016 Q 245.47134935304985 167.87526127748384 246.0628465804066 167.28410340596608 Q 246.65434380776338 166.6929455344483 247.24584103512012 166.6929455344483 Q 247.83733826247686 166.6929455344483 248.4288354898336 166.10178766293058 Q 249.02033271719034 165.51062979141284 249.02033271719034 164.91947191989507 Q 249.02033271719034 164.3283140483773 249.02033271719034 163.73715617685954 Q 249.02033271719034 163.14599830534178 249.02033271719034 162.55484043382404 Q 249.02033271719034 161.9636825623063 249.02033271719034 161.37252469078854 Q 249.02033271719034 160.78136681927077 249.02033271719034 160.190208947753 Q 249.02033271719034 159.59905107623524 249.02033271719034 158.4167353331997 Q 249.02033271719034 157.23441959016418 249.02033271719034 156.64326171864644 Q 249.02033271719034 156.0521038471287 249.02033271719034 155.46094597561094 Q 249.02033271719034 154.86978810409317 249.61182994454708 154.2786302325754 Q 250.20332717190382 153.68747236105764 250.20332717190382 153.09631448953988 Q 250.20332717190382 152.5051566180221 250.20332717190382 151.91399874650438 Q 250.20332717190382 151.32284087498664 250.20332717190382 150.73168300346887 Q 250.20332717190382 150.1405251319511 250.20332717190382 149.54936726043334 Q 250.20332717190382 148.95820938891558 250.20332717190382 148.3670515173978 Q 250.20332717190382 147.77589364588005 250.20332717190382 147.1847357743623 Q 250.20332717190382 146.59357790284457 250.20332717190382 145.41126215980904 Q 250.20332717190382 144.2289464167735 250.20332717190382 143.63778854525575 Q 250.20332717190382 143.04663067373798 250.20332717190382 142.45547280222024 Q 250.20332717190382 141.8643149307025 250.20332717190382 141.27315705918474 Q 250.20332717190382 140.68199918766697 250.20332717190382 139.49968344463144 Q 250.20332717190382 138.3173677015959 250.20332717190382 137.1350519585604 Q 250.20332717190382 135.9527362155249 250.20332717190382 134.77042047248938 Q 250.20332717190382 133.58810472945385 250.20332717190382 132.40578898641834 Q 250.20332717190382 131.22347324338284 250.20332717190382 130.63231537186508 Q 250.20332717190382 130.0411575003473 250.20332717190382 129.44999962882954 Q 250.20332717190382 128.85884175731178 250.20332717190382 128.267683885794 Q 250.20332717190382 127.67652601427626 250.20332717190382 127.08536814275853 Q 250.20332717190382 126.49421027124079 250.20332717190382 124.7207366566875 Q 250.20332717190382 122.94726304213422 250.20332717190382 122.35610517061646 Q 250.20332717190382 121.7649472990987 250.20332717190382 120.58263155606318 Q 250.20332717190382 119.40031581302766 250.20332717190382 118.80915794150991 Q 250.20332717190382 118.21800006999216 250.20332717190382 117.62684219847439 Q 250.20332717190382 117.03568432695663 250.20332717190382 116.44452645543888 Q 250.20332717190382 115.85336858392112 250.20332717190382 114.07989496936784 Q 250.20332717190382 112.30642135481456 249.61182994454708 111.7152634832968 Q 249.02033271719034 111.12410561177903 249.02033271719034 110.53294774026128 Q 249.02033271719034 109.94178986874353 249.02033271719034 109.35063199722578 Q 249.02033271719034 108.75947412570802 249.02033271719034 108.16831625419026 Q 249.02033271719034 107.5771583826725 249.02033271719034 106.98600051115473 Q 249.02033271719034 106.39484263963696 249.02033271719034 105.80368476811921 Q 249.02033271719034 105.21252689660146 249.02033271719034 104.03021115356594 Q 249.02033271719034 102.84789541053043 249.02033271719034 102.25673753901268 Q 249.02033271719034 101.66557966749492 249.02033271719034 101.07442179597716 Q 249.02033271719034 100.4832639244594 249.02033271719034 99.89210605294164 Q 249.02033271719034 99.30094818142388 249.02033271719034 98.70979030990613 Q 249.02033271719034 98.11863243838837 249.02033271719034 95.75400095231734 Q 249.02033271719034 93.3893694662463 249.02033271719034 92.20705372321078 Q 249.02033271719034 91.02473798017527 249.02033271719034 89.84242223713974 Q 249.02033271719034 88.66010649410423 249.02033271719034 87.47779075106871 Q 249.02033271719034 86.2954750080332 249.02033271719034 85.70431713651544 Q 249.02033271719034 85.11315926499768 249.02033271719034 84.52200139347991 Q 249.02033271719034 83.93084352196215 249.02033271719034 83.3396856504444 Q 249.02033271719034 82.74852777892664 249.02033271719034 81.56621203589111 Q 249.02033271719034 80.3838962928556 249.02033271719034 79.79273842133784 Q 249.02033271719034 79.2015805498201 249.02033271719034 78.01926480678458 Q 249.02033271719034 76.83694906374905 249.02033271719034 75.65463332071354 Q 249.02033271719034 74.47231757767803 249.02033271719034 72.69884396312474 Q 249.02033271719034 70.92537034857148 249.02033271719034 69.15189673401821 Q 249.02033271719034 67.37842311946494 249.02033271719034 66.19610737642941 Q 249.02033271719034 65.0137916333939 249.02033271719034 64.42263376187614 Q 249.02033271719034 63.83147589035839 248.4288354898336 62.64916014732287 Q 247.83733826247686 61.46684440428734 247.83733826247686 60.875686532769585 Q 247.83733826247686 60.28452866125183 247.24584103512012 60.28452866125183 Q 246.65434380776338 60.28452866125183 246.65434380776338 59.69337078973407 Q 246.65434380776338 59.10221291821631 246.65434380776338 58.51105504669855 Q 246.65434380776338 57.91989717518079 246.65434380776338 57.328739303663035 Q 246.65434380776338 56.73758143214528 246.65434380776338 56.14642356062751 Q 246.65434380776338 55.555265689109746 245.47134935304987 54.964107817591994 L 244.28735489833636 54.371949946074245" stroke-linecap="round" />
</g>
</svg>